# xmcd
#
# Track frame offsets: 
#        150
#        14277
#        31859
#        46355
#        62119
#        78461
#        91975
#        104618
#        121601
#        135268
#        154389
#
# Disc length: 2250 seconds
#
# Revision: 0
# Processed by: cddbd v1.5.1PL2 Copyright (c) Steve Scherf et al.
# Submitted via: ExactAudioCopy v0.95b3
#
DISCID=8308c80b
DTITLE=John Berry - Standing On The Edge
DYEAR=1900
DGENRE=
TTITLE0=Every Time My Heart Calls Your Name
TTITLE1=Standing On The Edge Of Goodbye
TTITLE2=Prove Me Wrong
TTITLE3=I Think About It All The Time
TTITLE4=If I Had Any Pride Left At All
TTITLE5=Desparate Measures
TTITLE6=What Are We Fighting For
TTITLE7=There's No Cross That Love Won't Bear
TTITLE8=Ninety Miles An Hour
TTITLE9=I Never Lost You
TTITLE10=You And Only You
EXTD=
EXTT0=
EXTT1=
EXTT2=
EXTT3=
EXTT4=
EXTT5=
EXTT6=
EXTT7=
EXTT8=
EXTT9=
EXTT10=
PLAYORDER=
